<svg width="95" height="19" viewBox="0 0 95 19" fill="none" xmlns="http://www.w3.org/2000/svg">
<path d="M3.23999 3.04803V7.86003H9.31199V10.344H3.23999V15.252H10.944V17.832H-6.67572e-06V0.48003H10.944V3.04803H3.23999ZM24.3287 17.832H21.4727C21.2567 17.832 21.0807 17.776 20.9447 17.664C20.8167 17.552 20.7087 17.424 20.6207 17.28L18.0167 12.996C17.9767 13.132 17.9287 13.26 17.8727 13.38C17.8247 13.5 17.7687 13.612 17.7047 13.716L15.4007 17.28C15.3127 17.416 15.2047 17.544 15.0767 17.664C14.9487 17.776 14.7887 17.832 14.5967 17.832H11.9447L16.1687 11.484L12.1127 5.52003H14.9687C15.1847 5.52003 15.3447 5.55203 15.4487 5.61603C15.5527 5.67203 15.6447 5.76803 15.7247 5.90403L18.3047 10.008C18.3927 9.73603 18.5167 9.46803 18.6767 9.20403L20.7527 5.96403C20.9287 5.66803 21.1567 5.52003 21.4367 5.52003H24.1607L20.1167 11.352L24.3287 17.832ZM34.1332 8.12403C34.0452 8.23603 33.9572 8.32403 33.8692 8.38803C33.7892 8.45203 33.6692 8.48403 33.5092 8.48403C33.3572 8.48403 33.2092 8.44003 33.0652 8.35203C32.9212 8.25603 32.7492 8.15203 32.5492 8.04003C32.3492 7.92003 32.1092 7.81603 31.8292 7.72803C31.5572 7.63203 31.2172 7.58403 30.8092 7.58403C30.2892 7.58403 29.8332 7.68003 29.4412 7.87203C29.0492 8.05603 28.7212 8.32403 28.4572 8.67603C28.2012 9.02803 28.0092 9.45603 27.8812 9.96003C27.7532 10.456 27.6892 11.02 27.6892 11.652C27.6892 12.308 27.7572 12.892 27.8932 13.404C28.0372 13.916 28.2412 14.348 28.5052 14.7C28.7692 15.044 29.0892 15.308 29.4652 15.492C29.8412 15.668 30.2652 15.756 30.7372 15.756C31.2092 15.756 31.5892 15.7 31.8772 15.588C32.1732 15.468 32.4212 15.34 32.6212 15.204C32.8212 15.06 32.9932 14.932 33.1372 14.82C33.2892 14.7 33.4572 14.64 33.6412 14.64C33.8812 14.64 34.0612 14.732 34.1812 14.916L35.0332 15.996C34.7052 16.38 34.3492 16.704 33.9652 16.968C33.5812 17.224 33.1812 17.432 32.7652 17.592C32.3572 17.744 31.9332 17.852 31.4932 17.916C31.0612 17.98 30.6292 18.012 30.1972 18.012C29.4372 18.012 28.7212 17.872 28.0492 17.592C27.3772 17.304 26.7892 16.888 26.2852 16.344C25.7812 15.8 25.3812 15.136 25.0852 14.352C24.7972 13.56 24.6532 12.66 24.6532 11.652C24.6532 10.748 24.7812 9.91203 25.0372 9.14403C25.3012 8.36803 25.6852 7.70003 26.1892 7.14003C26.6932 6.57203 27.3172 6.12803 28.0612 5.80803C28.8052 5.48803 29.6612 5.32803 30.6292 5.32803C31.5492 5.32803 32.3532 5.47603 33.0412 5.77203C33.7372 6.06803 34.3612 6.49203 34.9132 7.04403L34.1332 8.12403ZM44.6124 10.26C44.6124 9.87603 44.5564 9.51603 44.4444 9.18003C44.3404 8.83603 44.1804 8.53603 43.9644 8.28003C43.7484 8.02403 43.4724 7.82403 43.1364 7.68003C42.8084 7.52803 42.4244 7.45203 41.9844 7.45203C41.1284 7.45203 40.4524 7.69603 39.9564 8.18403C39.4684 8.67203 39.1564 9.36403 39.0204 10.26H44.6124ZM38.9604 12.048C39.0084 12.68 39.1204 13.228 39.2964 13.692C39.4724 14.148 39.7044 14.528 39.9924 14.832C40.2804 15.128 40.6204 15.352 41.0124 15.504C41.4124 15.648 41.8524 15.72 42.3324 15.72C42.8124 15.72 43.2244 15.664 43.5684 15.552C43.9204 15.44 44.2244 15.316 44.4804 15.18C44.7444 15.044 44.9724 14.92 45.1644 14.808C45.3644 14.696 45.5564 14.64 45.7404 14.64C45.9884 14.64 46.1724 14.732 46.2924 14.916L47.1444 15.996C46.8164 16.38 46.4484 16.704 46.0404 16.968C45.6324 17.224 45.2044 17.432 44.7564 17.592C44.3164 17.744 43.8644 17.852 43.4004 17.916C42.9444 17.98 42.5004 18.012 42.0684 18.012C41.2124 18.012 40.4164 17.872 39.6804 17.592C38.9444 17.304 38.3044 16.884 37.7604 16.332C37.2164 15.772 36.7884 15.084 36.4764 14.268C36.1644 13.444 36.0084 12.492 36.0084 11.412C36.0084 10.572 36.1444 9.78403 36.4164 9.04803C36.6884 8.30403 37.0764 7.66003 37.5804 7.11603C38.0924 6.56403 38.7124 6.12803 39.4404 5.80803C40.1764 5.48803 41.0044 5.32803 41.9244 5.32803C42.7004 5.32803 43.4164 5.45203 44.0724 5.70003C44.7284 5.94803 45.2924 6.31203 45.7644 6.79203C46.2364 7.26403 46.6044 7.84803 46.8684 8.54403C47.1404 9.23203 47.2764 10.02 47.2764 10.908C47.2764 11.356 47.2284 11.66 47.1324 11.82C47.0364 11.972 46.8524 12.048 46.5804 12.048H38.9604ZM52.5007 3.05176e-05V17.832H49.5367V3.05176e-05H52.5007ZM58.4539 3.05176e-05V17.832H55.4899V3.05176e-05H58.4539ZM69.339 10.26C69.339 9.87603 69.283 9.51603 69.171 9.18003C69.067 8.83603 68.907 8.53603 68.691 8.28003C68.475 8.02403 68.199 7.82403 67.863 7.68003C67.535 7.52803 67.151 7.45203 66.711 7.45203C65.855 7.45203 65.179 7.69603 64.683 8.18403C64.195 8.67203 63.883 9.36403 63.747 10.26H69.339ZM63.687 12.048C63.735 12.68 63.847 13.228 64.023 13.692C64.199 14.148 64.431 14.528 64.719 14.832C65.007 15.128 65.347 15.352 65.739 15.504C66.139 15.648 66.579 15.72 67.059 15.72C67.539 15.72 67.951 15.664 68.295 15.552C68.647 15.44 68.951 15.316 69.207 15.18C69.471 15.044 69.699 14.92 69.891 14.808C70.091 14.696 70.283 14.64 70.467 14.64C70.715 14.64 70.899 14.732 71.019 14.916L71.871 15.996C71.543 16.38 71.175 16.704 70.767 16.968C70.359 17.224 69.931 17.432 69.483 17.592C69.043 17.744 68.591 17.852 68.127 17.916C67.671 17.98 67.227 18.012 66.795 18.012C65.939 18.012 65.143 17.872 64.407 17.592C63.671 17.304 63.031 16.884 62.487 16.332C61.943 15.772 61.515 15.084 61.203 14.268C60.891 13.444 60.735 12.492 60.735 11.412C60.735 10.572 60.871 9.78403 61.143 9.04803C61.415 8.30403 61.803 7.66003 62.307 7.11603C62.819 6.56403 63.439 6.12803 64.167 5.80803C64.903 5.48803 65.731 5.32803 66.651 5.32803C67.427 5.32803 68.143 5.45203 68.799 5.70003C69.455 5.94803 70.019 6.31203 70.491 6.79203C70.963 7.26403 71.331 7.84803 71.595 8.54403C71.867 9.23203 72.003 10.02 72.003 10.908C72.003 11.356 71.955 11.66 71.859 11.82C71.763 11.972 71.579 12.048 71.307 12.048H63.687ZM76.9993 7.03203C77.2473 6.78403 77.5073 6.55603 77.7793 6.34803C78.0593 6.13203 78.3513 5.95203 78.6553 5.80803C78.9673 5.65603 79.2993 5.54003 79.6513 5.46003C80.0033 5.37203 80.3873 5.32803 80.8033 5.32803C81.4753 5.32803 82.0713 5.44403 82.5913 5.67603C83.1113 5.90003 83.5433 6.22003 83.8873 6.63603C84.2393 7.04403 84.5033 7.53603 84.6793 8.11203C84.8633 8.68003 84.9553 9.30803 84.9553 9.99603V17.832H81.9913V9.99603C81.9913 9.24403 81.8193 8.66403 81.4753 8.25603C81.1313 7.84003 80.6073 7.63203 79.9033 7.63203C79.3913 7.63203 78.9113 7.74803 78.4633 7.98003C78.0153 8.21203 77.5913 8.52803 77.1913 8.92803V17.832H74.2273V5.52003H76.0393C76.4233 5.52003 76.6753 5.70003 76.7953 6.06003L76.9993 7.03203ZM91.7141 18.024C90.6421 18.024 89.8181 17.724 89.2421 17.124C88.6741 16.516 88.3901 15.68 88.3901 14.616V7.74003H87.1301C86.9701 7.74003 86.8341 7.68803 86.7221 7.58403C86.6101 7.48003 86.5541 7.32403 86.5541 7.11603V5.94003L88.5341 5.61603L89.1581 2.25603C89.1981 2.09603 89.2741 1.97203 89.3861 1.88403C89.4981 1.79603 89.6421 1.75203 89.8181 1.75203H91.3541V5.62803H94.6421V7.74003H91.3541V14.412C91.3541 14.796 91.4461 15.096 91.6301 15.312C91.8221 15.528 92.0821 15.636 92.4101 15.636C92.5941 15.636 92.7461 15.616 92.8661 15.576C92.9941 15.528 93.1021 15.48 93.1901 15.432C93.2861 15.384 93.3701 15.34 93.4421 15.3C93.5141 15.252 93.5861 15.228 93.6581 15.228C93.7461 15.228 93.8181 15.252 93.8741 15.3C93.9301 15.34 93.9901 15.404 94.0541 15.492L94.9421 16.932C94.5101 17.292 94.0141 17.564 93.4541 17.748C92.8941 17.932 92.3141 18.024 91.7141 18.024Z" fill="white"/>
</svg>
