<svg width="125" height="32" viewBox="0 0 125 32" fill="none" xmlns="http://www.w3.org/2000/svg">
<g clip-path="url(#clip0_1_441)">
<g clip-path="url(#clip1_1_441)">
<g clip-path="url(#clip2_1_441)">
<path d="M16.0023 1.28711C15.7504 1.28719 15.4986 1.30232 15.2484 1.33242C14.6269 1.40854 14.0193 1.57241 13.4437 1.81914C9.39062 3.54023 6.40625 9.2457 6.40625 16.0012C6.40625 22.7566 9.39062 28.4613 13.443 30.1832C14.0185 30.4299 14.6261 30.5938 15.2477 30.6699C15.4978 30.7 15.7496 30.7152 16.0016 30.7152C21.293 30.7152 25.5977 24.1145 25.5977 16.0012C25.5977 7.88789 21.2937 1.28711 16.0023 1.28711Z" fill="#F8CC5D"/>
<path d="M5.84844 10.2441H2.05312C1.59469 11.9132 1.34074 13.6318 1.29688 15.3621H5.13594C5.17796 13.6346 5.41701 11.9175 5.84844 10.2441Z" fill="#F8CC5D"/>
<path d="M8.01562 5.125H4.42187C3.59117 6.30716 2.9286 7.59892 2.45312 8.96328H6.22188C6.66316 7.61634 7.26543 6.32759 8.01562 5.125Z" fill="#F8CC5D"/>
<path d="M5.13594 16.6406H1.29688C1.34075 18.3709 1.59469 20.0895 2.05312 21.7586H5.84844C5.417 20.0853 5.17795 18.3682 5.13594 16.6406Z" fill="#F8CC5D"/>
<path d="M11.6352 1.33242C11.385 1.30232 11.1332 1.28719 10.8812 1.28711C9.85299 1.31971 8.84246 1.56371 7.91261 2.0039C6.98277 2.44409 6.15353 3.07105 5.47656 3.8457H8.91406C9.67521 2.8629 10.5953 2.01355 11.6352 1.33242Z" fill="#F8CC5D"/>
<path d="M6.22187 23.0391H2.45312C2.9286 24.4034 3.59117 25.6952 4.42188 26.8773H8.01563C7.2666 25.6746 6.66538 24.3858 6.225 23.0391" fill="#F8CC5D"/>
<path d="M8.91406 28.1562H5.47656C6.15317 28.9305 6.98191 29.5573 7.91119 29.9974C8.84047 30.4376 9.8504 30.6818 10.8781 30.7149C11.1301 30.7148 11.3819 30.6997 11.632 30.6695C10.5931 29.9881 9.67455 29.1388 8.91406 28.1562Z" fill="#F8CC5D"/>
<path d="M15.9967 0.0078125H10.8787C7.92405 0.0078125 5.16468 1.70625 3.10921 4.78984C1.00715 8.14588 -0.071948 12.0415 0.00373975 16.0008C-0.0721004 19.9603 1.007 23.8562 3.10921 27.2125C5.16468 30.2961 7.92405 31.9945 10.8795 31.9945H15.9975C18.9522 31.9945 21.7116 30.2961 23.7678 27.2125C25.87 23.8562 26.9491 19.9603 26.8733 16.0008C26.9487 12.0414 25.8694 8.1458 23.767 4.78984C21.7108 1.70625 18.9514 0.0078125 15.9967 0.0078125ZM10.8787 1.2875C11.1307 1.28758 11.3825 1.30271 11.6326 1.33281C10.592 2.01375 9.67185 2.86311 8.90999 3.84609H5.47249C6.14964 3.07125 6.97912 2.44418 7.90925 2.00398C8.83938 1.56378 9.85021 1.31989 10.8787 1.2875ZM4.42249 5.12578H8.01624C7.26612 6.32841 6.66385 7.61715 6.22249 8.96406H2.45374C2.92921 7.5997 3.59179 6.30794 4.42249 5.12578ZM2.04905 10.2422H5.84436C5.41293 11.9155 5.17388 13.6326 5.13187 15.3602H1.2928C1.33667 13.6298 1.59061 11.9113 2.04905 10.2422ZM1.2928 16.6406H5.13187C5.17388 18.3682 5.41293 20.0853 5.84436 21.7586H2.04905C1.59061 20.0895 1.33667 18.3709 1.2928 16.6406ZM4.42249 26.875C3.59179 25.6928 2.92921 24.4011 2.45374 23.0367H6.22249C6.66287 24.3835 7.26408 25.6722 8.01311 26.875H4.42249ZM10.8787 30.7109C9.85101 30.6779 8.84108 30.4337 7.9118 29.9935C6.98252 29.5534 6.15379 28.9266 5.47718 28.1523H8.91468C9.67583 29.1351 10.5951 29.9845 11.635 30.6656C11.3848 30.6957 11.1331 30.7109 10.8811 30.7109M15.9991 30.7109C15.7471 30.7109 15.4953 30.6957 15.2451 30.6656C14.6236 30.5895 14.016 30.4256 13.4405 30.1789C9.38733 28.4602 6.40374 22.7523 6.40374 15.9969C6.40374 9.24141 9.38499 3.54063 13.4412 1.81953C14.0168 1.5728 14.6244 1.40893 15.2459 1.33281C15.4961 1.30271 15.7479 1.28758 15.9998 1.2875C21.2912 1.2875 25.5959 7.88828 25.5959 16.0016C25.5959 24.1148 21.2881 30.7109 15.9967 30.7109" fill="black"/>
<path d="M20.0393 11.459L16.4955 12.3832L17.0159 7.29728C17.0243 7.20991 17.0136 7.12174 16.9843 7.039C16.955 6.95625 16.9079 6.88093 16.8463 6.81837C16.7906 6.75903 16.7203 6.71538 16.6424 6.69179C16.5645 6.66821 16.4818 6.66552 16.4026 6.68399L12.2385 7.76993C12.1439 7.79875 12.0609 7.85673 12.0013 7.93559C11.9416 8.01445 11.9084 8.11015 11.9065 8.209L11.3291 17.8817C11.3242 17.9672 11.3376 18.0529 11.3686 18.1328C11.3996 18.2128 11.4474 18.2851 11.5088 18.3449C11.5644 18.4015 11.6337 18.4428 11.7099 18.4649C11.7861 18.4869 11.8668 18.4889 11.944 18.4707L16.069 17.3949L16.4643 24.7918C16.4682 24.9139 16.5116 25.0315 16.5881 25.1268C16.6647 25.222 16.7701 25.2898 16.8885 25.3199C16.9516 25.3329 17.0168 25.3313 17.0791 25.3152C17.1566 25.2925 17.2265 25.2493 17.2815 25.1902C17.3365 25.1311 17.3745 25.0582 17.3916 24.9793L20.6409 12.1512C20.6628 12.0593 20.6627 11.9635 20.6404 11.8717C20.6181 11.7799 20.5744 11.6947 20.5127 11.6231C20.4578 11.5546 20.3847 11.5029 20.3019 11.4738C20.219 11.4448 20.1296 11.4397 20.044 11.459" fill="black"/>
<path d="M48.2453 11.9234C48.1896 12.1839 48.1315 12.4352 48.0711 12.6773C48.0107 12.9195 47.9523 13.15 47.8961 13.3687C47.8431 13.5668 47.815 13.7707 47.8125 13.9758C47.8125 14.069 47.724 14.1807 47.5469 14.3109C47.3523 14.4528 47.1467 14.579 46.932 14.6883C46.6992 14.8096 46.4711 14.9193 46.2477 15.0172C46.0927 15.0882 45.9342 15.151 45.7727 15.2055C45.4841 15.2805 45.1977 15.3529 44.9133 15.4227C44.6289 15.4924 44.3425 15.569 44.0539 15.6523C44.3425 15.8294 44.6242 16.0042 44.8992 16.1766C45.1742 16.349 45.456 16.5188 45.7445 16.6859L46.1148 16.9031C46.2497 16.9823 46.3823 17.0661 46.5125 17.1547C46.639 17.2396 46.754 17.3404 46.8547 17.4547C46.9505 17.5631 47.0198 17.6923 47.057 17.832C47.1816 18.2526 47.2565 18.6863 47.2805 19.1242C47.3086 19.5852 47.3227 20.0297 47.3227 20.4578C47.323 20.8918 47.3491 21.3254 47.4008 21.7563C47.4529 22.1849 47.5018 22.6224 47.5477 23.0688C47.594 23.4229 47.6336 23.7792 47.6664 24.1375C47.6992 24.4958 47.7388 24.8518 47.7852 25.2055C47.3195 25.131 46.8703 25.0706 46.4375 25.0242C45.9899 24.977 45.54 24.9538 45.0899 24.9547C44.8477 24.9547 44.6133 24.95 44.3867 24.9406C44.1602 24.9312 43.9297 24.9172 43.6953 24.8984C43.8255 24.4328 43.9349 23.9672 44.0234 23.5016C44.1119 23.0365 44.1564 22.5641 44.1563 22.0906C44.1563 21.6349 44.1516 21.1786 44.1422 20.7219C44.1328 20.2651 44.1281 19.8089 44.1281 19.3531C44.1195 19.1004 44.0625 18.8516 43.9602 18.6203C43.8711 18.3843 43.7436 18.1647 43.5828 17.9703C43.4574 17.8957 43.3166 17.8505 43.1711 17.8383C42.943 17.7961 42.694 17.7589 42.4242 17.7266C42.1544 17.6943 41.9008 17.6682 41.6633 17.6484C41.4258 17.6297 41.2745 17.6156 41.2094 17.6062C41.2281 18.3979 41.2607 19.1846 41.307 19.9664C41.3534 20.7482 41.3766 21.5349 41.3766 22.3266C41.376 22.5359 41.3924 22.7449 41.4258 22.9516C41.4581 23.1516 41.4977 23.3539 41.5445 23.5586C41.1159 23.4841 40.6969 23.4214 40.2875 23.3703C39.8614 23.3177 39.4325 23.2916 39.0031 23.2922H38.3117C38.0836 23.2922 37.8578 23.2836 37.6344 23.2641C37.7623 22.8211 37.8511 22.3678 37.9 21.9094C37.9464 21.4625 37.9766 21.0156 37.9906 20.5687C38.0047 20.1219 38.0117 19.675 38.0117 19.2281C38.0117 18.7812 38.0255 18.325 38.0531 17.8594C38.0995 17.1333 38.1255 16.4042 38.1313 15.6719C38.137 14.9396 38.1393 14.2104 38.1383 13.4844C38.1383 12.7495 38.1057 12.0232 38.0406 11.3055C37.9755 10.5878 37.943 9.86146 37.943 9.12656C37.9425 8.82206 37.9145 8.51822 37.8594 8.21875C37.8057 7.93329 37.7777 7.64359 37.7758 7.35313C37.7661 7.24408 37.7353 7.13795 37.6852 7.04063C37.6247 6.90573 37.576 6.80156 37.5391 6.72812C37.8089 6.70937 38.0813 6.69531 38.3563 6.68594C38.6305 6.67734 38.9031 6.67188 39.1734 6.67188C39.6919 6.67193 40.2098 6.70717 40.7234 6.77734C41.2325 6.84695 41.7456 6.88193 42.2594 6.88203C42.5556 6.88223 42.8516 6.86606 43.1461 6.83359C43.4405 6.80078 43.7366 6.78435 44.0328 6.78438C44.2423 6.79139 44.4512 6.81253 44.6578 6.84766C44.937 6.88984 45.2234 6.94792 45.5172 7.02188C45.7911 7.09028 46.0596 7.17907 46.3203 7.2875C46.5059 7.34704 46.6674 7.46451 46.7813 7.62266C46.9717 7.95503 47.1964 8.26661 47.4516 8.55235C47.7087 8.84011 47.9251 9.16187 48.0945 9.50859C48.156 9.61698 48.1986 9.73509 48.2203 9.85781C48.2484 9.99766 48.2711 10.1445 48.2898 10.2984C48.3086 10.4523 48.3203 10.6008 48.325 10.7453C48.3297 10.8898 48.332 11.0125 48.332 11.1148C48.3329 11.3871 48.3049 11.6587 48.2484 11.925M44.5688 11.1086C44.5241 10.9077 44.4683 10.7095 44.4016 10.5148C44.3367 10.3229 44.2621 10.1344 44.1781 9.95C44.1317 9.82195 44.0522 9.70847 43.9477 9.6211C43.8561 9.57089 43.7516 9.54913 43.6477 9.55859C43.5219 9.56328 43.4219 9.56484 43.3477 9.56484C43.1524 9.56484 42.9497 9.57422 42.7399 9.59297C42.5305 9.61172 42.3234 9.6211 42.1149 9.6211C41.9471 9.6211 41.7818 9.61641 41.6188 9.60703C41.4557 9.59766 41.2857 9.58359 41.1086 9.56484C41.1082 9.92504 41.0802 10.2847 41.025 10.6406C40.9697 10.9963 40.9418 11.3557 40.9414 11.7156C40.9416 12.2056 40.9695 12.6952 41.025 13.182C41.0807 13.6763 41.1328 14.1604 41.1813 14.6344C41.3412 14.5402 41.5069 14.4561 41.6774 14.3828C41.9055 14.2786 42.1477 14.181 42.4039 14.0898C42.6602 13.9987 42.907 13.9174 43.1445 13.8461C43.3138 13.7888 43.4897 13.7534 43.668 13.7406C43.7726 13.7458 43.877 13.7257 43.9723 13.6819C44.0675 13.6381 44.1507 13.5719 44.2149 13.4891C44.3511 13.3087 44.4485 13.102 44.5008 12.882C44.5617 12.6417 44.5991 12.396 44.6125 12.1484C44.6266 11.8969 44.6336 11.693 44.6336 11.5336C44.6264 11.3899 44.6052 11.2473 44.5703 11.1078" fill="black"/>
<path d="M57.8615 24.3883C57.4368 24.3457 57.0102 24.3246 56.5834 24.325C56.1834 24.325 55.7855 24.3367 55.3897 24.3602C54.9938 24.3836 54.5912 24.4185 54.1818 24.4648C54.1271 23.9638 54.0992 23.4602 54.0982 22.9562C54.0982 22.7521 54.1053 22.5544 54.1193 22.3633C54.134 22.1679 54.1643 21.9741 54.21 21.7836C53.735 21.8305 53.2693 21.8747 52.8131 21.9164C52.3518 21.959 51.8943 22.0358 51.4443 22.1461C51.3645 22.3131 51.2969 22.4857 51.242 22.6625C51.1915 22.827 51.1542 22.9952 51.1303 23.1656C51.1068 23.3348 51.0927 23.5051 51.0881 23.6758C51.0834 23.8482 51.0764 24.0273 51.067 24.2133C50.3967 24.269 49.7264 24.3109 49.0561 24.3391C48.3857 24.3672 47.7108 24.4091 47.0311 24.4648C47.3009 23.7878 47.5847 23.1151 47.8826 22.4469C48.1805 21.7786 48.4714 21.1104 48.7553 20.4422C49.0391 19.7719 49.3092 19.0948 49.5654 18.4109C49.8224 17.7233 50.0391 17.0214 50.2146 16.3086C50.3995 15.5781 50.6232 14.8581 50.885 14.1516C51.1454 13.449 51.4225 12.7529 51.7162 12.0633C52.01 11.3737 52.3102 10.6872 52.617 10.0039C52.9243 9.31953 53.2175 8.62813 53.4967 7.92969C54.0175 9.31719 54.4993 10.7023 54.942 12.0852C55.3847 13.468 55.7688 14.876 56.0943 16.3094C56.2239 16.8378 56.3848 17.358 56.5764 17.8672C56.767 18.3745 56.9602 18.8888 57.1561 19.4102C57.4821 20.2576 57.8149 21.1026 58.1545 21.9453C58.4941 22.788 58.8131 23.6474 59.1115 24.5234C58.6949 24.4771 58.2782 24.4331 57.8615 24.3914M53.274 14.8867L52.2404 19.2617L53.8467 19.0664L53.274 14.8867Z" fill="black"/>
<path d="M69.5367 10.8258C69.504 11.1482 69.4876 11.472 69.4875 11.7961C69.4874 12.0553 69.5015 12.3142 69.5297 12.5719C69.5573 12.8246 69.5711 13.0786 69.5711 13.3328H69.082C68.6203 13.3521 68.1578 13.3333 67.6992 13.2766C67.2405 13.2201 66.7786 13.1922 66.3164 13.193C66.1367 13.193 65.9572 13.1815 65.7789 13.1586C65.5977 13.1352 65.4227 13.1094 65.2547 13.0805C65.3156 13.3946 65.3599 13.7117 65.3875 14.0305C65.4198 14.3846 65.443 14.7479 65.457 15.1203C65.4711 15.4927 65.4781 15.863 65.4781 16.2312V17.2297C65.4771 17.6932 65.5168 18.1559 65.5969 18.6125C65.6764 19.0644 65.7162 19.5224 65.7156 19.9813C65.7156 20.1958 65.7109 20.4078 65.7016 20.6172C65.6922 20.8266 65.6875 21.0336 65.6875 21.2383C65.6871 21.8957 65.7407 22.5521 65.8477 23.2008C65.953 23.8404 66.0999 24.4725 66.2875 25.093C66.0177 25.093 65.7477 25.0883 65.4774 25.0789C65.207 25.0695 64.9425 25.0643 64.6836 25.0633C64.0818 25.063 63.4803 25.0956 62.882 25.1609C62.2862 25.226 61.6951 25.2818 61.1086 25.3281L61.0805 24.8672C61.071 24.4823 61.0922 24.0972 61.1438 23.7156C61.1958 23.3385 61.2563 22.9615 61.325 22.5844C61.3938 22.2073 61.4612 21.8302 61.5274 21.4531C61.5926 21.0764 61.6346 20.696 61.6531 20.3141C61.6995 19.7194 61.7113 19.1226 61.6883 18.5266C61.6648 17.9401 61.6531 17.3536 61.6531 16.7672C61.6531 16.4693 61.6672 16.176 61.6953 15.8875C61.7234 15.599 61.7583 15.3151 61.8 15.0359C61.8417 14.7568 61.8836 14.4729 61.9258 14.1844C61.968 13.8958 61.9982 13.6026 62.0164 13.3047H61.8766C61.5051 13.2765 61.1315 13.2999 60.7664 13.3742C60.3987 13.4492 60.038 13.5237 59.6844 13.5977C59.5367 13.6882 59.3731 13.7497 59.2023 13.7789C58.9648 13.8346 58.7112 13.8836 58.4414 13.9258C58.1716 13.968 57.9112 14.0026 57.6602 14.0297C57.4086 14.0578 57.2227 14.0766 57.1016 14.0859C57.176 13.788 57.2482 13.4878 57.318 13.1852C57.388 12.8805 57.4231 12.5689 57.4227 12.2562C57.4227 11.7068 57.4039 11.1576 57.3664 10.6086C57.3289 10.0596 57.3104 9.51042 57.3109 8.96094C57.7115 9.09167 58.1096 9.22188 58.5055 9.35156C58.9013 9.48125 59.3016 9.6 59.7063 9.70781C60.1115 9.81458 60.5188 9.90313 60.9281 9.97344C61.3388 10.0433 61.7546 10.0784 62.1711 10.0781H68.6375C68.8076 10.0732 68.9763 10.047 69.1398 10C69.3352 9.94792 69.4982 9.89896 69.6289 9.85312C69.6008 10.1797 69.5706 10.5034 69.5383 10.8242" fill="black"/>
<path d="M79.1539 12.3355C78.8747 12.3033 78.6023 12.2707 78.3367 12.2379C78.0711 12.2051 77.801 12.179 77.5266 12.1598C77.2521 12.141 76.9471 12.1316 76.6117 12.1316C76.1754 12.1314 75.7394 12.1575 75.3063 12.2098C74.8775 12.2617 74.446 12.2878 74.0141 12.2879C73.8572 12.2882 73.7005 12.2767 73.5453 12.2535C73.3891 12.2301 73.2328 12.204 73.0766 12.1754C73.1494 12.5887 73.1961 13.0062 73.2164 13.4254C73.2351 13.8306 73.2445 14.2517 73.2445 14.6887C73.2445 14.8564 73.2492 15.0311 73.2586 15.2129C73.268 15.3947 73.282 15.5738 73.3008 15.7504C73.8591 15.6665 74.3852 15.6014 74.8789 15.5551C75.3727 15.5087 75.8591 15.4647 76.3383 15.423C76.818 15.3809 77.3044 15.3342 77.7977 15.2832C78.2909 15.2322 78.8117 15.1645 79.3602 15.0801L79.5 18.1801C79.2672 18.1712 79.0531 18.1645 78.8578 18.1598C78.6625 18.1551 78.4716 18.1434 78.2852 18.1246C78.0992 18.1059 77.9107 18.078 77.7195 18.041C77.5289 18.0043 77.3125 17.9527 77.0703 17.8848C76.8159 17.8147 76.557 17.7624 76.2953 17.7285C76.0115 17.6921 75.7229 17.6642 75.4297 17.6449C75.1365 17.6256 74.8461 17.6137 74.5586 17.609C74.2703 17.6004 74.0047 17.5902 73.7625 17.5809L73.6063 21.2676H74.6953C75.1516 21.2676 75.5753 21.2538 75.9664 21.2262C76.3576 21.1986 76.744 21.1684 77.1258 21.1355C77.5075 21.1033 77.894 21.0728 78.2852 21.0441C78.6763 21.0155 79.1 21.0014 79.5563 21.002L79.6539 24.1582C79.356 24.1395 79.0836 24.1233 78.8367 24.1098C78.5898 24.0962 78.35 24.0845 78.1172 24.0746L77.3984 24.0465C77.1516 24.0379 76.8797 24.0324 76.5812 24.0324C76.2276 24.0324 75.8529 24.035 75.457 24.0402C75.0793 24.0427 74.7028 24.0823 74.3328 24.1582C73.8096 24.2724 73.2761 24.3332 72.7406 24.3395C72.1818 24.3488 71.651 24.3535 71.1484 24.3535C70.8599 24.3535 70.5805 24.3488 70.3101 24.3395C70.0398 24.3309 69.7703 24.3254 69.5 24.3254C69.5651 24.1577 69.6536 23.9275 69.7656 23.6348C69.8776 23.3421 69.9893 23.0324 70.1008 22.7059C70.2128 22.3798 70.3104 22.0632 70.3938 21.7559C70.4659 21.5199 70.5082 21.2758 70.5195 21.0293C70.5195 20.3783 70.5008 19.729 70.4633 19.0816C70.4258 18.4342 70.3838 17.7871 70.3375 17.1402C70.2911 16.4928 70.2492 15.8457 70.2117 15.1988C70.1742 14.552 70.1555 13.9022 70.1555 13.2496C70.1555 12.6444 70.1602 12.0418 70.1695 11.4418C70.1789 10.8418 70.193 10.2342 70.2117 9.61914C70.4529 9.71341 70.7001 9.7917 70.9516 9.85351C71.2031 9.91402 71.4609 9.94444 71.7195 9.94414H71.9289C72.5435 9.83997 73.1555 9.74674 73.7648 9.66445C74.3688 9.581 74.9778 9.53897 75.5875 9.53867C75.9693 9.53867 76.3417 9.52252 76.7047 9.49023C77.0677 9.45794 77.4284 9.41601 77.7867 9.36445C78.145 9.31237 78.5037 9.25638 78.8625 9.19648C79.2214 9.13659 79.5859 9.07826 79.9563 9.02148C79.938 9.22617 79.9242 9.42878 79.9148 9.6293C79.9055 9.82982 79.9008 10.0275 79.9008 10.2223C79.9018 10.5909 79.9229 10.9591 79.9641 11.3254C80.0057 11.7077 80.0406 12.0754 80.0687 12.4285C79.7338 12.4004 79.4266 12.3702 79.1469 12.3379" fill="black"/>
<path d="M91.0211 13.1379C90.9935 13.4363 90.9539 13.7668 90.9024 14.1293C90.8508 14.4918 90.7904 14.8668 90.7211 15.2543C90.6513 15.6408 90.5745 16.0038 90.4906 16.3434C90.4173 16.6479 90.3286 16.9485 90.225 17.2441C90.163 17.4444 90.0685 17.6331 89.9453 17.8027C89.8151 17.9423 89.6615 18.1098 89.4844 18.3051C89.3041 18.5043 89.1129 18.6934 88.9117 18.8715C88.718 19.0441 88.5088 19.1984 88.2867 19.3324C88.1054 19.4496 87.8955 19.5147 87.6797 19.5207C87.4566 19.5162 87.2345 19.49 87.0164 19.4426C86.7607 19.3905 86.4953 19.3301 86.2203 19.2613C85.9453 19.1926 85.6776 19.1181 85.4172 19.0379C85.1568 18.9587 84.9287 18.891 84.7328 18.8348C84.751 19.8217 84.7883 20.8113 84.8445 21.8035C84.9008 22.7957 84.938 23.7895 84.9563 24.7848C84.6122 24.6638 84.2563 24.5795 83.8945 24.5332C83.53 24.4868 83.1669 24.4522 82.8055 24.4293C82.444 24.4064 82.081 24.3785 81.7164 24.3457C81.3532 24.313 80.9933 24.2498 80.6406 24.1566C80.7151 23.8405 80.7896 23.5171 80.8641 23.1863C80.9387 22.8619 80.9909 22.5327 81.0203 22.2012C81.0373 22.0241 81.07 21.849 81.118 21.6777C81.1643 21.5147 81.2133 21.3564 81.2649 21.2027C81.3164 21.0491 81.3685 20.8928 81.4211 20.734C81.473 20.5712 81.5034 20.4023 81.5117 20.2316C81.5675 19.6822 81.6 19.1329 81.6094 18.584C81.6188 18.035 81.6235 17.4905 81.6235 16.9504C81.6235 16.7363 81.6164 16.5199 81.6024 16.3012C81.5884 16.0825 81.5581 15.8653 81.5117 15.6512C81.4391 15.2498 81.3947 14.8439 81.3789 14.4363C81.3648 14.0452 81.3578 13.6402 81.3578 13.2215C81.3563 12.4392 81.3041 11.6579 81.2016 10.8824C81.0974 10.0954 80.9904 9.32018 80.8805 8.55664C81.0534 8.62923 81.2336 8.68319 81.418 8.71758C81.6263 8.75925 81.8404 8.7918 82.0602 8.81524C82.28 8.83867 82.4964 8.85482 82.7094 8.86367C82.9234 8.87305 83.1143 8.87773 83.282 8.87773C83.9242 8.87773 84.5667 8.86367 85.2094 8.83555C85.8521 8.80742 86.4945 8.79336 87.1367 8.79336C87.5979 8.80084 88.0523 8.90546 88.4703 9.10039C88.9332 9.30668 89.3619 9.58252 89.7414 9.91836C90.1219 10.2502 90.4431 10.6444 90.6914 11.084C90.9324 11.5 91.0601 11.972 91.0617 12.4527C91.0617 12.609 91.0477 12.8387 91.0195 13.1371M87.5039 14.1527C87.4945 13.9387 87.4805 13.7132 87.4617 13.4762C87.443 13.2392 87.4198 13.0225 87.3922 12.8262C87.3846 12.7058 87.3564 12.5877 87.3086 12.477C87.1754 12.3688 87.0167 12.2967 86.8477 12.2676C86.5872 12.1931 86.2987 12.1165 85.982 12.0379C85.6654 11.9592 85.3604 11.8895 85.0672 11.8285C84.774 11.7681 84.5622 11.7191 84.432 11.6816C84.4602 12.427 84.488 13.1697 84.5156 13.9098C84.5432 14.6499 84.5711 15.3923 84.5992 16.1371C84.869 16.1652 85.1414 16.2004 85.4164 16.2426C85.6959 16.2847 85.9783 16.3056 86.2609 16.3051C86.3498 16.3023 86.4374 16.2835 86.5196 16.2496C86.6207 16.2108 86.7187 16.164 86.8125 16.1098C86.9092 16.0548 87.0026 15.9943 87.0922 15.9285C87.1688 15.8736 87.2411 15.813 87.3086 15.7473C87.369 15.6773 87.41 15.5927 87.4274 15.502C87.4559 15.3918 87.4771 15.2798 87.4906 15.1668C87.5043 15.0556 87.5113 14.9437 87.5117 14.8316V14.573C87.5117 14.5085 87.507 14.3689 87.4977 14.1543" fill="black"/>
<path d="M101.009 14.2352C100.936 15.4503 100.9 16.6674 100.9 17.8867C100.9 18.169 100.914 18.4511 100.942 18.732C100.97 19.0127 100.985 19.2945 100.984 19.5766C100.984 19.6885 100.97 19.868 100.942 20.1148C100.914 20.3617 100.877 20.6432 100.83 20.9594C100.784 21.276 100.73 21.6044 100.67 21.9445C100.609 22.2846 100.542 22.6013 100.467 22.8945C100.403 23.1499 100.325 23.4016 100.233 23.6484C100.194 23.7955 100.114 23.9285 100.002 24.032C99.8347 24.144 99.6461 24.2628 99.4367 24.3883C99.2295 24.5127 99.0151 24.6247 98.7945 24.7234C98.5792 24.8196 98.3576 24.9011 98.1313 24.9672C97.9229 25.0301 97.7067 25.063 97.4891 25.0648C97.2269 25.0496 96.9683 24.997 96.7211 24.9086C96.3951 24.8044 96.0565 24.6786 95.7055 24.5312C95.3545 24.3839 95.0239 24.2328 94.7141 24.0781C94.4016 23.9219 94.1617 23.7937 93.9946 23.6937C93.4771 23.3993 93.0423 22.9791 92.7305 22.4719C92.4277 21.9677 92.2038 21.4202 92.0664 20.8484C91.9211 20.2558 91.8345 19.6503 91.8078 19.0406C91.7802 18.4214 91.7661 17.837 91.7656 17.2875C91.7656 16.7479 91.7916 16.2104 91.8437 15.675C91.8958 15.1396 91.9518 14.6018 92.0117 14.0617C92.0721 13.5221 92.1279 12.982 92.1789 12.4414C92.2299 11.9008 92.256 11.3607 92.2571 10.8211C92.2574 10.5641 92.2388 10.3074 92.2015 10.0531C92.164 9.80156 92.1175 9.54557 92.0617 9.28516C92.3508 9.31328 92.6372 9.33932 92.9211 9.36328C93.205 9.38724 93.4914 9.3987 93.7805 9.39765C94.2481 9.39661 94.7153 9.3687 95.1797 9.31406C95.0242 9.87474 94.8998 10.4436 94.807 11.018C94.6997 11.6602 94.6109 12.3211 94.5406 13.0008C94.4703 13.6805 94.4164 14.3487 94.3789 15.0055C94.3419 15.6617 94.3234 16.2505 94.3234 16.7719C94.3234 16.9115 94.3258 17.1234 94.3305 17.4078C94.3352 17.6922 94.3492 18.0062 94.3726 18.35C94.3961 18.6948 94.4263 19.0487 94.4633 19.4117C94.4968 19.7531 94.5506 20.0923 94.6242 20.4273C94.6816 20.7012 94.7683 20.9681 94.8828 21.2234C94.9497 21.4049 95.0852 21.5528 95.2602 21.6352C95.3815 21.6633 95.505 21.6865 95.6305 21.7047C95.7577 21.7238 95.8862 21.7332 96.0149 21.7328C96.1448 21.7305 96.2739 21.7118 96.3992 21.6773C96.5415 21.6415 96.6778 21.5851 96.8039 21.5102C96.9241 21.4399 97.0302 21.3477 97.1164 21.2383C97.1995 21.1329 97.2439 21.0022 97.2422 20.868C97.2419 20.4015 97.2653 19.9352 97.3125 19.4711C97.359 19.0116 97.3823 18.5501 97.3821 18.0883C97.3821 17.1018 97.3541 16.1174 97.2984 15.1352C97.2427 14.1529 97.2148 13.1542 97.2148 12.1391C97.2147 11.8415 97.2426 11.5446 97.2984 11.2523C97.3541 10.96 97.3727 10.6618 97.3539 10.3648C97.9987 10.4117 98.6482 10.4443 99.3023 10.4625C99.9565 10.4807 100.606 10.5273 101.251 10.6023C101.163 11.8128 101.083 13.0255 101.011 14.2406" fill="black"/>
<path d="M113.173 10.9113C113.09 11.3353 113.011 11.7564 112.939 12.1746C112.828 12.8357 112.756 13.5028 112.723 14.1723C112.69 14.8337 112.628 15.4993 112.534 16.1691C112.43 17.0348 112.311 17.896 112.178 18.7527C112.043 19.612 111.975 20.4806 111.976 21.3504C111.976 21.9368 112.004 22.528 112.059 23.1238C112.115 23.7197 112.152 24.3108 112.171 24.8973C111.483 24.8509 110.801 24.8163 110.125 24.7934C109.449 24.7704 108.768 24.7262 108.08 24.6605C108.126 24.1767 108.17 23.6926 108.212 23.2082C108.253 22.7238 108.275 22.2397 108.275 21.7559C108.281 21.2134 108.222 20.6721 108.101 20.1434C107.987 19.671 107.818 19.2137 107.598 18.7809C107.373 18.3428 107.112 17.9247 106.816 17.5309C106.514 17.1256 106.181 16.6996 105.818 16.2527C105.799 16.7553 105.792 17.2605 105.797 17.7684C105.802 18.2657 105.762 18.7625 105.678 19.2527C105.574 19.8673 105.476 20.4725 105.385 21.0684C105.291 21.6737 105.245 22.2855 105.245 22.898C105.245 23.1329 105.257 23.3675 105.28 23.6012C105.304 23.8293 105.339 24.0595 105.385 24.2918C105.106 24.2918 104.82 24.2965 104.526 24.3059C104.232 24.3152 103.941 24.3199 103.653 24.3199C103.379 24.3192 103.105 24.2931 102.836 24.2418C102.561 24.1897 102.289 24.1267 102.019 24.0527C102.186 22.6465 102.347 21.2452 102.501 19.8488C102.655 18.4343 102.732 17.0124 102.731 15.5895C102.731 15.0526 102.698 14.5162 102.634 13.9832C102.569 13.4436 102.49 12.9014 102.399 12.3566C102.308 11.8118 102.208 11.2671 102.099 10.7223C101.992 10.1775 101.896 9.6444 101.812 9.12305C102.226 9.18635 102.644 9.21899 103.063 9.2207H104.313C104.639 9.2207 104.962 9.23008 105.284 9.24883L106.254 9.3043C106.368 9.67972 106.457 10.0623 106.52 10.4496C106.594 10.8876 106.672 11.3277 106.754 11.7699C106.836 12.2121 106.927 12.6332 107.027 13.0332C107.108 13.3789 107.235 13.7123 107.404 14.0246C107.633 14.438 107.887 14.837 108.165 15.2191C108.439 15.5957 108.689 15.9898 108.912 16.3988C109.088 16.7155 109.26 17.0298 109.428 17.3418C109.596 17.6538 109.759 17.9678 109.917 18.284C109.973 17.4928 110.025 16.7014 110.073 15.9098C110.122 15.1181 110.145 14.3267 110.143 13.5355C110.148 12.8238 110.059 12.1144 109.877 11.4262C109.69 10.7443 109.466 10.073 109.207 9.41523C109.561 9.42461 109.913 9.44102 110.262 9.46445C110.611 9.48789 110.962 9.51393 111.316 9.54258C111.67 9.5707 112.024 9.59674 112.378 9.6207C112.732 9.64466 113.086 9.65143 113.44 9.64101C113.356 10.0577 113.272 10.479 113.188 10.9051" fill="black"/>
<path d="M123.687 11.5531C123.221 12.0792 122.751 12.5982 122.276 13.1102C121.801 13.6221 121.326 14.1367 120.852 14.6539C120.377 15.1706 119.921 15.7034 119.483 16.2523C119.557 16.3456 119.69 16.5063 119.88 16.7344L120.53 17.5086C120.772 17.7971 121.023 18.1023 121.284 18.4242L122.01 19.318C122.234 19.5925 122.42 19.8268 122.569 20.0211C122.667 20.1332 122.746 20.2607 122.803 20.3984C122.892 20.7299 123.011 21.0524 123.159 21.3617C123.304 21.6602 123.457 21.9487 123.62 22.2273C123.783 22.506 123.942 22.7898 124.095 23.0789C124.253 23.3751 124.386 23.6834 124.494 24.0008C123.852 24.0289 123.244 24.0661 122.671 24.1125C122.069 24.1645 121.473 24.272 120.891 24.4336C120.794 23.7892 120.645 23.154 120.444 22.5344C120.231 21.9054 119.925 21.3121 119.536 20.7742C119.148 20.2307 118.799 19.6614 118.488 19.0703C118.181 18.4839 117.865 17.8971 117.539 17.3102C117.52 17.6643 117.492 18.0135 117.455 18.3578C117.418 18.7058 117.399 19.0555 117.399 19.4055C117.399 19.8512 117.422 20.2966 117.469 20.7398C117.515 21.182 117.573 21.6195 117.644 22.0523C117.714 22.4852 117.786 22.918 117.86 23.3508C117.935 23.7836 118 24.2188 118.055 24.6563H117.655C117.368 24.6656 117.081 24.6515 116.796 24.6141C116.512 24.5766 116.228 24.5326 115.945 24.482L115.092 24.3258C114.804 24.2739 114.512 24.2433 114.22 24.2344C114.294 23.3776 114.394 22.5234 114.52 21.6719C114.646 20.8138 114.708 19.9477 114.708 19.0805C114.708 18.2992 114.673 17.4638 114.603 16.5742C114.533 15.6846 114.443 14.7815 114.331 13.8648C114.219 12.9477 114.096 12.0445 113.961 11.1555C113.826 10.2664 113.693 9.43073 113.562 8.64844C113.86 8.70417 114.165 8.75078 114.477 8.78828C114.79 8.82575 115.105 8.84453 115.42 8.84453C115.83 8.84453 116.244 8.83516 116.663 8.81641C117.075 8.79992 117.478 8.70025 117.85 8.52344V10.2969C117.85 10.6748 117.829 11.0525 117.788 11.4281C117.745 11.8005 117.701 12.1708 117.655 12.5391C117.608 12.9073 117.564 13.2773 117.522 13.6492C117.48 14.0202 117.459 14.3931 117.459 14.7664C117.459 14.8695 117.459 14.9695 117.466 15.0672C117.472 15.1687 117.488 15.2693 117.516 15.3672C117.897 14.7896 118.244 14.231 118.556 13.6914C118.868 13.1518 119.161 12.6096 119.436 12.0648C119.71 11.5201 119.969 10.9589 120.211 10.3813C120.453 9.80365 120.691 9.18438 120.923 8.52344C121.246 8.68994 121.58 8.83454 121.922 8.95625C122.261 9.0776 122.6 9.18724 122.938 9.28516L123.964 9.57813C124.308 9.67604 124.653 9.78542 124.998 9.90625C124.588 10.474 124.151 11.0208 123.684 11.5469" fill="black"/>
</g>
</g>
</g>
<defs>
<clipPath id="clip0_1_441">
<rect width="125" height="32" fill="white"/>
</clipPath>
<clipPath id="clip1_1_441">
<rect width="125" height="32" fill="white"/>
</clipPath>
<clipPath id="clip2_1_441">
<rect width="125" height="31.9859" fill="white" transform="translate(0 0.0078125)"/>
</clipPath>
</defs>
</svg>
